#!OML:ASF F:\VICON\USERDATA\INSTALL\rory3\rory3.ASF
:FULLY-SPECIFIED
:DEGREES
18
root 0.19387667214669202 18.17368398775465 -17.479188048649224 -3.8588014922072897 1.257854423431568 -6.4443892625437
lfemur -9.944838535029692 0.40008852103306003 -12.74801010683817
ltibia 67.12358068427307
lfoot 14.124177819565897 -20.205272678459725
ltoes -1.084938078899775
rfemur -12.488601078567626 2.6400785192710554 32.724290207912254
rtibia 26.4517059950617
rfoot -7.97499989323478 -7.972591116152012
rtoes 6.706154014491934
lowerback 11.42499564473025 -0.5205311419842383 2.363676032663479
upperback -0.00931534839701502 -0.13181642841563257 3.7229047157815107
thorax -6.43133446411615 -0.07773153915364991 2.61376527181894
lowerneck -14.94111941750733 -3.1256771192327633 -1.8948913395080909
upperneck 21.528098740907126 -3.835360337559603 -0.23750859198085994
head 9.274039445250558 -1.9739560582933922 -0.23786102195311087
lclavicle 2.9911137972303177e-16 5.531458010562508e-17
lhumerus -29.895500715735228 5.373417392759973 84.0447861190546
lradius 27.86779570810082
lwrist 7.060850861729201
lhand -29.550400051819427 17.790202176005316
lfingers 7.125020000000001
lthumb -2.883300050978523 47.75050219149574
rclavicle 2.9911137972303177e-16 5.531458010562508e-17
rhumerus -35.96839158327771 -25.74619040697631 -72.96130947897345
rradius 20.879715327315743
rwrist 9.172416072594359
rhand -14.063631050407803 24.308192644853435
rfingers 7.125020000000001
rthumb 12.067768934841762 -5.323808112183286
19
root 0.18712285913791615 18.149485436608042 -16.871788057282004 -3.735302371894475 1.4595836906005015 -6.2589198525696785
lfemur -15.631794779833509 0.30762206912139023 -12.877710434961443
ltibia 71.0979771826241
lfoot 6.817705517105938 -14.178281985822128
ltoes -3.2092652249263063
rfemur -10.899602208479712 3.38649625448873 32.92539015777573
rtibia 27.435605753010506
rfoot -9.749417797748716 -9.433067141440137
rtoes 6.759434175615375
lowerback 11.565694081348525 -0.3161165269700371 2.435705890085046
upperback 0.41718435466272946 0.11397855687658831 3.3534295349546435
thorax -6.06289184202036 0.03552969540641257 2.1349170856598185
lowerneck -16.006506223751717 -3.323862259643538 -1.6702153562020208
upperneck 21.354700875326838 -4.15416603459749 -0.1883770568633374
head 9.409245364303198 -2.093621533219032 -0.31568870650854014
lclavicle 2.991114283124891e-16 5.5314525425828107e-17
lhumerus -29.879500716668222 6.680935071585116 83.49298864414722
lradius 27.10419720378606
lwrist 8.180727769555096
lhand -27.288711467257517 20.02229782571679
lfingers 7.125020000000001
lthumb -0.6988894959645728 50.000897809807675
rclavicle 2.991114283124891e-16 5.5314525425828107e-17
rhumerus -32.979196368938396 -25.39359103631946 -74.69920522225677
rradius 21.56751379169677
rwrist 8.491157694987464
rhand -14.246129526302589 18.927114963255995
rfingers 7.125020000000001
rthumb 11.89177063362352 -10.71518587114595
20
root 0.19404566199766748 18.17528388785531 -16.240689680156294 -3.3552950060123976 0.5131190997833714 -6.133000296291096
lfemur -20.311891650510386 0.9107683541763958 -13.066109626397912
ltibia 71.7452785120131
lfoot 0.12246911677354166 -9.722719270703983
ltoes -10.183497351426702
rfemur -9.00312345259705 4.617642373100336 33.12898999215293
rtibia 27.691006119654197
rfoot -12.172195063306237 -9.958905687969267
rtoes 11.712287710444492
lowerback 11.22829783341075 0.23949779023645199 2.6767953005516896
upperback 0.554447967908487 0.8373525564682721 2.963164682978116
thorax -5.731618481426782 0.38031868620210746 1.4657296339294856
lowerneck -15.722709744515077 -3.413880057817728 -1.8148227725609316
upperneck 21.114903824943884 -4.367903188359947 0.3359285792872224
head 9.29123892709448 -2.147389497238298 -0.13115114064975208
lclavicle 2.9911139772621517e-16 5.531456215514378e-17
lhumerus -30.472499705508188 6.879594887836016 83.0881903602608
lradius 26.096099206957994
lwrist 9.434544203948066
lhand -26.93021328096928 20.637696667797854
lfingers 7.125020000000001
lthumb -0.3527343578531834 50.6170965822042
rclavicle 2.9911139772621517e-16 5.531456215514378e-17
rhumerus -30.367500480167106 -23.525894258977416 -76.76260022147854
rradius 22.490211851398215
rwrist 6.833772187833295
rhand -15.51601945358422 17.536420765714187
rfingers 7.125020000000001
rthumb 10.667080516012314 -12.172779865935096
21
root 0.21405818788101794 18.085568590024863 -15.088673847751526 -3.113636166871786 -0.04849931771465166 -6.358618931079128
lfemur -22.676409840380654 1.9061183129183314 -12.978920534016424
ltibia 68.25744782332444
lfoot -5.44078970197937 -7.25991147163543
ltoes -9.600838002906405
rfemur -7.2483621661944095 4.562338558813365 33.886919586733306
rtibia 28.63294508438944
rfoot -14.474740018095968 -10.105836752482407
rtoes 9.750345369790939
lowerback 11.756645176387634 0.5776339047984557 4.130608579447948
upperback 0.2137903669551397 1.5026184889334033 2.701915219058784
thorax -5.995091409349361 0.6369345229479714 0.6467415142444642
lowerneck -15.556651957433917 -3.4933923795933968 -1.9850591705614025
upperneck 21.36347667599794 -4.625117887269974 0.9181010542621562
head 9.417460217091271 -2.1902243861604433 0.009147028010734276
lclavicle 2.978766693365753e-16 5.4857720680417636e-17
lhumerus -31.274156013026182 7.5154910567406805 82.26349857042011
lradius 25.302674210923165
lwrist 7.934169523617059
lhand -28.104734501082405 22.342239895005527
lfingers 7.125020000000001
lthumb -1.6395454912850889 52.148486308389415
rclavicle 3.020365410151691e-16 5.741736238664553e-17
rhumerus -28.27897154975098 -20.00788650107943 -78.63173317566397
rradius 24.90938634813233
rwrist 4.637886965266602
rhand -17.80289127223547 19.16067456430662
rfingers 7.125020000000001
rthumb 8.57773272837612 -10.242991049327959
22
root 0.23799218999859473 18.0360689916038 -14.319909484818151 -2.8291136770422938 -0.08689356941307771 -6.864694044994405
lfemur -25.394341143068765 2.1921695304079014 -12.669083998634445
ltibia 62.84801593626267
lfoot -10.527736671933559 -4.195937777971527
ltoes -9.149882163234901
rfemur -5.232725079202593 4.450730655540314 34.43861291259869
rtibia 28.86544159650888
rfoot -15.967550393910209 -10.14319380021016
rtoes 8.191307439774155
lowerback 12.084963890078141 0.7253074228311853 4.888821566383732
upperback -0.011437265965695706 1.8980372982866334 2.555920670493172
thorax -6.1224180263702435 0.8336975434454645 -0.050911212087911384
lowerneck -15.583599317688073 -3.6062643486656927 -1.985529573465755
upperneck 21.395469910589906 -4.893273437074787 1.3644269555078348
head 9.51962800953343 -2.2808447004237866 0.08115501656497867
lclavicle 3.1508833398278123e-16 6.641008157492245e-17
lhumerus -32.05513077314549 8.987802820069497 81.05618688205392
lradius 24.146491943618024
lwrist 6.8934934112411215
lhand -28.452724494824473 23.037526254268393
lfingers 7.125020000000001
lthumb -2.1877738564509093 52.36683217193173
rclavicle 2.9897940598228185e-16 5.5222304414477895e-17
rhumerus -26.371737704213793 -16.563497595882826 -80.21910787815177
rradius 27.779632163589252
rwrist 2.083716530146142
rhand -18.28468231757156 19.972708349634203
rfingers 7.125020000000001
rthumb 8.177513566679362 -9.861699935279951
